<svg viewBox="0 0 259 74" xmlns="http://www.w3.org/2000/svg" style="color:#0f172a">
	<style>
		/* Single-color logo: use currentColor for all parts */
		.logo--shape, .logo--text { fill: currentColor; }
		#logo--purple, #logo--orange, #logo--green, #logo--blue,
		#logo--name, #logo--claim { fill: currentColor; }
	</style>
					<g id="logo-shape">
						<path class="logo--shape" id="logo--purple" d="M0 37.163H36.7788C36.7788 27.0069 28.5455 18.7736 18.3894 18.7736C8.2333 18.7736 0 27.0069 0 37.163Z"></path>
						<path class="logo--shape" id="logo--orange" d="M36.7783 0.384155V37.163C46.9344 37.163 55.1677 28.9297 55.1677 18.7736C55.1677 8.61745 46.9344 0.384155 36.7783 0.384155Z"></path>
						<path class="logo--shape" id="logo--green" d="M73.5571 37.1632H36.7783C36.7783 47.3182 45.0116 55.5515 55.1677 55.5515C65.3238 55.5515 73.5571 47.3193 73.5571 37.1632Z"></path>
						<path class="logo--shape" id="logo--blue" d="M36.7781 73.942V37.1632C26.622 37.1632 18.3887 45.3954 18.3887 55.5526C18.3887 65.7099 26.622 73.942 36.7781 73.942Z"></path>
					</g>
					<path class="logo--text" id="logo--name" d="M250.009 32.8233C247.693 32.8233 246.126 31.155 246.126 28.7358C246.126 26.3177 247.693 24.6494 250.009 24.6494C252.323 24.6494 253.89 26.3177 253.89 28.7358C253.89 31.155 252.323 32.8233 250.009 32.8233ZM259 28.9069C259 23.3895 255.321 19.8817 250.009 19.8817C244.696 19.8817 240.95 23.628 240.95 28.7358C240.95 34.9686 245.446 37.591 249.021 37.591C251.507 37.591 253.415 36.3654 254.231 34.5259H254.301V37.1482H259V28.9069ZM237.611 37.1482V28.4299C237.611 22.7425 234.273 19.8817 229.301 19.8817C224.329 19.8817 220.99 22.7756 220.99 28.4299V37.1482H226.1V28.4299C226.1 25.7734 227.394 24.6494 229.302 24.6494C231.209 24.6494 232.504 25.7734 232.504 28.4299V37.1482H237.611ZM211.318 18.1437L215.405 12.6263H211.079L208.73 15.4198H208.66L206.31 12.6263H201.984L206.072 18.1437H211.318ZM208.697 24.4451C210.468 24.4451 211.83 25.2621 212.409 26.8632V26.9316H205.052V26.8632C205.597 25.2621 206.925 24.4451 208.697 24.4451ZM217.653 30.1667V28.7358C217.653 23.628 214.01 19.8817 208.695 19.8817C203.381 19.8817 199.636 23.628 199.636 28.7358C199.636 33.8446 203.382 37.591 208.695 37.591C212.884 37.591 216.087 35.2756 217.176 31.802H211.897C211.249 32.7206 210.161 33.0276 208.695 33.0276C206.789 33.0276 205.391 32.0736 204.949 30.2352V30.1667H217.653ZM185.979 37.1482V27.6802C185.979 25.4322 187.069 24.6494 188.567 24.6494C190.101 24.6494 191.19 25.4322 191.19 27.6802V37.1482H196.299V27.6802C196.299 22.2655 193.167 19.8817 189.079 19.8817C186.662 19.8817 184.721 20.8003 183.459 22.504H183.392C182.131 20.8003 180.156 19.8817 177.771 19.8817C173.685 19.8817 170.552 22.2655 170.552 27.6802V37.1482H175.661V27.6802C175.661 25.4322 176.75 24.6494 178.283 24.6494C179.781 24.6494 180.872 25.4322 180.872 27.6802V37.1482H185.979ZM166.77 37.1482V32.7206H158.049V32.6533L166.429 24.5809V20.3244H151.785V24.7509H159.653V24.8194L151.273 32.8918V37.1482H166.77ZM142.555 29.0427C142.555 31.6993 141.261 32.8233 139.353 32.8233C137.447 32.8233 136.151 31.6993 136.151 29.0427V20.3244H131.043V29.0427C131.043 34.7301 134.38 37.591 139.352 37.591C144.324 37.591 147.662 34.6959 147.662 29.0427V20.3244H142.553V29.0427H142.555ZM118.033 32.8233C115.717 32.8233 114.15 31.155 114.15 28.7358C114.15 26.3177 115.717 24.6494 118.033 24.6494C120.349 24.6494 121.915 26.3177 121.915 28.7358C121.915 31.155 120.35 32.8233 118.033 32.8233ZM127.024 12.9675H121.915V22.0613H121.847C120.894 20.733 119.19 19.8817 117.045 19.8817C113.469 19.8817 108.974 22.504 108.974 28.7358C108.974 33.8446 112.72 37.591 118.033 37.591C123.346 37.591 127.024 34.0831 127.024 28.5657V12.9675ZM97.3593 24.4451C99.1303 24.4451 100.493 25.2621 101.073 26.8632V26.9316H93.7156V26.8632C94.2611 25.2621 95.5894 24.4451 97.3593 24.4451ZM106.317 30.1667V28.7358C106.317 23.628 102.672 19.8817 97.3593 19.8817C92.0473 19.8817 88.2998 23.628 88.2998 28.7358C88.2998 33.8446 92.0473 37.591 97.3593 37.591C101.55 37.591 104.75 35.2756 105.84 31.802H100.561C99.9143 32.7206 98.8245 33.0276 97.3593 33.0276C95.4524 33.0276 94.0557 32.0736 93.6129 30.2352V30.1667H106.317Z"></path>
					<path class="logo--text" id="logo--claim" d="M191.951 60.4604C190.509 60.4604 189.53 59.4345 189.53 57.991C189.53 56.5475 190.509 55.5205 191.951 55.5205C193.393 55.5205 194.355 56.5475 194.355 57.991C194.355 59.4345 193.392 60.4604 191.951 60.4604ZM196.328 50.3169H194.355V55.0412H194.322C193.791 54.2127 192.813 53.6832 191.588 53.6832C189.631 53.6832 187.543 55.0914 187.543 57.9922C187.543 60.4787 189.366 62.3011 191.951 62.3011C194.539 62.3011 196.328 60.578 196.328 57.926V50.3169ZM185.918 62.0854V57.8255C185.918 55.0731 184.293 53.6821 181.872 53.6821C179.452 53.6821 177.827 55.0902 177.827 57.8255V62.0854H179.8V57.8255C179.8 56.2679 180.63 55.5205 181.872 55.5205C183.115 55.5205 183.945 56.2668 183.945 57.8255V62.0854H185.918ZM171.793 60.4604C170.35 60.4604 169.373 59.4345 169.373 57.991C169.373 56.5475 170.35 55.5205 171.793 55.5205C173.236 55.5205 174.197 56.5475 174.197 57.991C174.197 59.4345 173.235 60.4604 171.793 60.4604ZM176.202 57.991C176.202 55.5045 174.378 53.6821 171.793 53.6821C169.207 53.6821 167.383 55.5056 167.383 57.991C167.383 60.4764 169.208 62.2999 171.793 62.2999C174.378 62.3011 176.202 60.4775 176.202 57.991ZM161.614 62.0854V56.8316H165.824V55.0412H161.614V53.7152C161.614 52.4554 162.278 51.9396 163.24 51.9396C164.201 51.9396 164.865 52.4382 164.865 53.7152V53.7323H166.819V53.7152C166.819 51.3119 165.377 50.1012 163.24 50.1012C161.1 50.1012 159.643 51.2948 159.643 53.7152V62.0865H161.614V62.0854ZM152.397 53.8966H150.424V62.0854H152.397V53.8966ZM151.817 52.7521L153.955 50.1491H151.9L150.125 52.7521H151.817ZM148.187 62.0854V57.8255C148.187 55.0731 146.561 53.6821 144.142 53.6821C141.721 53.6821 140.095 55.0902 140.095 57.8255V62.0854H142.068V57.8255C142.068 56.2679 142.897 55.5205 144.141 55.5205C145.383 55.5205 146.212 56.2668 146.212 57.8255V62.0854H148.187ZM135.223 52.7521L137.129 50.1491H135.455L134.229 51.6577H134.197L132.97 50.1491H131.295L133.2 52.7521H135.223ZM138.473 56.9628C138.073 55.0241 136.449 53.6821 134.227 53.6821C131.642 53.6821 129.817 55.5056 129.817 57.991C129.817 60.4764 131.642 62.2999 134.227 62.2999C136.448 62.2999 138.073 60.958 138.473 59.0169H136.482C136.134 59.8967 135.306 60.4604 134.227 60.4604C132.785 60.4604 131.808 59.4345 131.808 57.991C131.808 56.5475 132.785 55.5205 134.227 55.5205C135.305 55.5205 136.134 56.0842 136.482 56.9628H138.473ZM123.818 60.4604C122.376 60.4604 121.398 59.4345 121.398 57.991C121.398 56.5475 122.376 55.5205 123.818 55.5205C125.26 55.5205 126.221 56.5475 126.221 57.991C126.221 59.4345 125.26 60.4604 123.818 60.4604ZM128.194 58.0572C128.194 55.4212 126.404 53.6821 123.818 53.6821C121.232 53.6821 119.409 55.5056 119.409 57.991C119.409 60.8918 121.497 62.2999 123.453 62.2999C124.846 62.2999 125.906 61.605 126.354 60.5609H126.388V62.0854H128.194V58.0572ZM113.407 60.4604C111.965 60.4604 110.987 59.4345 110.987 57.991C110.987 56.5475 111.965 55.5205 113.407 55.5205C114.85 55.5205 115.811 56.5475 115.811 57.991C115.811 59.4345 114.85 60.4604 113.407 60.4604ZM117.784 50.3169H115.811V55.0412H115.778C115.247 54.2127 114.269 53.6832 113.042 53.6832C111.086 53.6832 108.998 55.0914 108.998 57.9922C108.998 60.4787 110.822 62.3011 113.407 62.3011C115.993 62.3011 117.784 60.578 117.784 57.926V50.3169ZM102.997 60.4604C101.554 60.4604 100.577 59.4345 100.577 57.991C100.577 56.5475 101.554 55.5205 102.997 55.5205C104.439 55.5205 105.4 56.5475 105.4 57.991C105.4 59.4345 104.439 60.4604 102.997 60.4604ZM107.373 58.0572C107.373 55.4212 105.583 53.6821 102.997 53.6821C100.411 53.6821 98.5875 55.5056 98.5875 57.991C98.5875 60.8918 100.676 62.2999 102.632 62.2999C104.025 62.2999 105.085 61.605 105.534 60.5609H105.567V62.0854H107.373V58.0572ZM96.9626 62.0854V57.8255C96.9626 55.0731 95.3376 53.6821 92.9172 53.6821C90.4969 53.6821 88.873 55.0902 88.873 57.8255V62.0854H90.8449V57.8255C90.8449 56.2679 91.6745 55.5205 92.9172 55.5205C94.1611 55.5205 94.9895 56.2668 94.9895 57.8255V62.0854H96.9626Z"></path>
				</svg>